<svg xmlns="http://www.w3.org/2000/svg" xmlns:xlink="http://www.w3.org/1999/xlink" width="720" height="798" viewBox="0 0 720 798">
  <defs>
    <clipPath id="clip-Custom_Size_1">
      <rect width="720" height="798"/>
    </clipPath>
  </defs>
  <g id="Custom_Size_1" data-name="Custom Size – 1" clip-path="url(#clip-Custom_Size_1)">
    <g id="Group_14712" data-name="Group 14712" transform="translate(-720 -96)">
      <path id="Path_43232" data-name="Path 43232" d="M222.57,0a6.823,6.823,0,0,0-.335,13.638V83.677a23.025,23.025,0,0,1-5.053,14.4l2.084,1.268a25.386,25.386,0,0,0,5.4-15.666V13.318A6.826,6.826,0,0,0,222.57,0m3.1,9.931a4.391,4.391,0,1,1,1.282-3.1,4.388,4.388,0,0,1-1.282,3.1" transform="translate(905.105 396)" fill="#22333d"/>
      <path id="Path_43233" data-name="Path 43233" d="M244.017,628.536c-.428.7-.861,1.381-1.289,2.063a4.25,4.25,0,0,1-4.183-.463L8.387,490.768a12.778,12.778,0,0,1-4.023-4.331c-.4-1.077-.79-2.158-1.188-3.242l.4-.108,116.516-32.5c2.1-.583,4.652.957,6.756,4.077L243.624,627.949Z" transform="translate(969.535 259.465)" fill="#ff5d00"/>
      <path id="Path_43234" data-name="Path 43234" d="M237.582,315.579,136.6,161.375c-8.644-13.2-19.294-19.657-27.942-16.942L7.424,176.212c-4.1-2.473-7.418.815-7.424,7.352v197.92c0,6.543,3.326,13.854,7.424,16.343L237.582,537.193c4.1,2.47,7.417-.818,7.424-7.352V331.922c-.006-6.543-3.326-13.853-7.424-16.343m6.551,213.733c-.009,5.762-2.937,8.661-6.551,6.487L7.424,396.432c-3.615-2.2-6.544-8.648-6.551-14.42V184.092c0-5.768,2.935-8.669,6.551-6.487l101.235-31.779c8.649-2.715,19.3,3.742,27.942,16.942l100.981,154.2c3.616,2.2,6.547,8.647,6.551,14.42Z" transform="translate(970.496 352.407)" fill="#fff" stroke="#fff" stroke-width="7"/>
      <path id="Path_43235" data-name="Path 43235" d="M139.539,329.167a9.4,9.4,0,0,1-2.234-1.951l-.132-.154-.026-.485c-.082.015-.165.026-.249.035l-.088.008-.088-.116c-.184-.24-.367-.5-.543-.762l-80.4-120.784V57.751c0-7.114,3.62-10.693,8.08-8l151.109,91.5c4.46,2.709,8.075,10.665,8.08,17.785v147.4l-.112.032L142.9,329.813a4.222,4.222,0,0,1-3.36-.645" transform="translate(953.592 381.192)" fill="#fff"/>
      <path id="Path_43236" data-name="Path 43236" d="M243.845,338.359,212.152,347.6l-5.459,1.593-80.031,23.348a4.086,4.086,0,0,1-3.254-.625,9.119,9.119,0,0,1-2.162-1.888q-.29-.323-.568-.692-.269-.35-.524-.735L45.32,256.182l-5.46-8.2L2.773,192.271a1.26,1.26,0,0,1-.166-1.055c.118-.263.384-.221.594.095L39.86,246.382l5.46,8.2,75.262,113.062a12.714,12.714,0,0,0,.778,1.049c.114.139.231.272.349.4,1.511,1.654,3.145,2.367,4.525,1.973L206.693,347.6l5.459-1.593,31.266-9.118c.21-.061.475.217.594.624s.045.785-.165.847h0" transform="translate(969.723 338.095)" fill="#fff" stroke="#fff" stroke-width="7"/>
      <path id="Path_43237" data-name="Path 43237" d="M95.984,128.869l-12.229-7.4c-1.93-1.169-3.494-4.612-3.494-7.691s1.564-4.628,3.494-3.459l12.229,7.4c1.93,1.169,3.494,4.612,3.494,7.691s-1.564,4.628-3.494,3.459" transform="translate(946.17 362.682)" fill="#ff5d00"/>
      <path id="Path_43238" data-name="Path 43238" d="M110.4,164.6,83.755,148.465c-1.929-1.168-3.494-4.611-3.494-7.691s1.565-4.627,3.494-3.459L110.4,153.447c1.929,1.169,3.493,4.611,3.493,7.691s-1.564,4.628-3.493,3.459" transform="translate(946.17 354.498)" fill="#e6e6e6"/>
      <path id="Path_43239" data-name="Path 43239" d="M195.924,288.386l-75.554-45.751c-1.93-1.168-3.494-4.611-3.494-7.691s1.565-4.627,3.494-3.459l75.554,45.751c1.93,1.169,3.494,4.611,3.494,7.691s-1.564,4.628-3.494,3.459" transform="translate(935.072 325.955)" fill="#ff5d00"/>
      <path id="Path_43240" data-name="Path 43240" d="M199.683,321.662l-89.967-54.477c-1.93-1.169-3.494-4.612-3.494-7.691s1.564-4.628,3.494-3.459l89.967,54.477c1.93,1.169,3.494,4.611,3.494,7.691s-1.564,4.628-3.494,3.459" transform="translate(938.301 318.514)" fill="#e6e6e6"/>
      <path id="Path_43241" data-name="Path 43241" d="M199.683,351.662l-89.967-54.477c-1.93-1.169-3.494-4.612-3.494-7.691s1.564-4.628,3.494-3.459l89.967,54.477c1.93,1.169,3.494,4.611,3.494,7.691s-1.564,4.628-3.494,3.459" transform="translate(938.301 309.421)" fill="#e6e6e6"/>
      <path id="Path_43244" data-name="Path 43244" d="M199.022,154.637c0,2.927-2.369,4.049-5.3,2.5a10.576,10.576,0,0,1-3.714-3.477,10.029,10.029,0,0,1-1.206-2.474,6.837,6.837,0,0,1-.376-2.146c0-2.92,2.369-4.042,5.3-2.5a10.535,10.535,0,0,1,3.77,3.568,10.04,10.04,0,0,1,1.087,2.2A6.926,6.926,0,0,1,199.022,154.637Z" transform="translate(913.385 351.793)" fill="#334973"/>
      <path id="Path_43242" data-name="Path 43242" d="M199.023,154.638c0,2.927-2.369,4.05-5.3,2.5a10.577,10.577,0,0,1-3.714-3.477,10.029,10.029,0,0,1-1.206-2.474,6.837,6.837,0,0,1-.376-2.146c0-2.92,2.369-4.042,5.3-2.5a10.536,10.536,0,0,1,3.77,3.568,10.041,10.041,0,0,1,1.087,2.2A6.927,6.927,0,0,1,199.023,154.638Z" transform="translate(913.383 351.792)" fill="none" stroke="#22333d" stroke-miterlimit="10" stroke-width="1"/>
      <path id="Path_43243" data-name="Path 43243" d="M188,137.2a26.191,26.191,0,0,1-8.342,1.352h-.23a25.99,25.99,0,0,1-25.911-25.778V95.99l10.7,17.527h-8.258a23.555,23.555,0,0,0,22.259,22.559c.474.028.962.042,1.443.042A23.928,23.928,0,0,0,186.915,135,10.053,10.053,0,0,1,188,137.2" transform="translate(923.965 366.905)" fill="#22333d"/>
      <line id="Line_823" data-name="Line 823" y1="107" transform="translate(1127.5 291.5)" fill="none" stroke="#cbcbcb" stroke-linecap="round" stroke-width="7"/>
      <path id="Path_43230" data-name="Path 43230" d="M0,0H1043.174V641Z" transform="translate(396.826 -103)" fill="#001b50"/>
      <line id="Line_824" data-name="Line 824" y1="238" transform="translate(1127.5 -5.5)" fill="none" stroke="#cbcbcb" stroke-linecap="square" stroke-width="7"/>
      <g id="Ellipse_401" data-name="Ellipse 401" transform="translate(1101 225)" fill="none" stroke="#cbcbcb" stroke-width="1">
        <ellipse cx="27" cy="12" rx="27" ry="12" stroke="none"/>
        <ellipse cx="27" cy="12" rx="26.5" ry="11.5" fill="none"/>
      </g>
      <g id="Ellipse_402" data-name="Ellipse 402" transform="translate(1078 215)" fill="none" stroke="#cbcbcb" stroke-width="1" opacity="0.5">
        <ellipse cx="50" cy="22" rx="50" ry="22" stroke="none"/>
        <ellipse cx="50" cy="22" rx="49.5" ry="21.5" fill="none"/>
      </g>
      <g id="Ellipse_403" data-name="Ellipse 403" transform="translate(1048 202)" fill="none" stroke="#cbcbcb" stroke-width="1" opacity="0.2">
        <ellipse cx="80" cy="35" rx="80" ry="35" stroke="none"/>
        <ellipse cx="80" cy="35" rx="79.5" ry="34.5" fill="none"/>
      </g>
    </g>
  </g>
</svg>
